{
    "asset" : {
        "generator" : "Khronos glTF Blender I/O v1.8.19",
        "version" : "2.0"
    },
    "scene" : 0,
    "scenes" : [
        {
            "name" : "Scene",
            "nodes" : [
                0,
                1,
                2
            ]
        }
    ],
    "nodes" : [
        {
            "mesh" : 0,
            "name" : "Sphere",
            "scale" : [
                0.1319945603609085,
                0.1319945603609085,
                0.1319945603609085
            ],
            "translation" : [
                0.13369201123714447,
                -0.1795416623353958,
                0.02712465077638626
            ]
        },
        {
            "mesh" : 1,
            "name" : "Sphere.001",
            "scale" : [
                0.08655725419521332,
                0.08655725419521332,
                0.08655725419521332
            ],
            "translation" : [
                0.41418057680130005,
                -0.29247769713401794,
                0.02712465077638626
            ]
        },
        {
            "mesh" : 2,
            "name" : "Node",
            "scale" : [
                3.2605140209198,
                3.2605140209198,
                3.2605140209198
            ],
            "translation" : [
                0.7147360444068909,
                0.39947059750556946,
                0.02712465077638626
            ]
        }
    ],
    "materials" : [
        {
            "name" : "mat21",
            "pbrMetallicRoughness" : {
                "metallicFactor" : 0
            }
        }
    ],
    "meshes" : [
        {
            "name" : "Sphere.002",
            "primitives" : [
                {
                    "attributes" : {
                        "POSITION" : 0,
                        "NORMAL" : 1,
                        "TEXCOORD_0" : 2
                    },
                    "indices" : 3,
                    "material" : 0
                }
            ]
        },
        {
            "name" : "Sphere.003",
            "primitives" : [
                {
                    "attributes" : {
                        "POSITION" : 4,
                        "NORMAL" : 5,
                        "TEXCOORD_0" : 6
                    },
                    "indices" : 3,
                    "material" : 0
                }
            ]
        },
        {
            "name" : "Node-Mesh",
            "primitives" : [
                {
                    "attributes" : {
                        "POSITION" : 7,
                        "NORMAL" : 8
                    },
                    "indices" : 9,
                    "material" : 0
                }
            ]
        }
    ],
    "accessors" : [
        {
            "bufferView" : 0,
            "componentType" : 5126,
            "count" : 162,
            "max" : [
                0.9366078972816467,
                1,
                0.8937008380889893
            ],
            "min" : [
                -0.9366077780723572,
                -1,
                -0.9510563015937805
            ],
            "type" : "VEC3"
        },
        {
            "bufferView" : 1,
            "componentType" : 5126,
            "count" : 162,
            "type" : "VEC3"
        },
        {
            "bufferView" : 2,
            "componentType" : 5126,
            "count" : 162,
            "type" : "VEC2"
        },
        {
            "bufferView" : 3,
            "componentType" : 5123,
            "count" : 216,
            "type" : "SCALAR"
        },
        {
            "bufferView" : 4,
            "componentType" : 5126,
            "count" : 162,
            "max" : [
                0.9366078972816467,
                1,
                0.8937008380889893
            ],
            "min" : [
                -0.9366077780723572,
                -1,
                -0.9510563015937805
            ],
            "type" : "VEC3"
        },
        {
            "bufferView" : 5,
            "componentType" : 5126,
            "count" : 162,
            "type" : "VEC3"
        },
        {
            "bufferView" : 6,
            "componentType" : 5126,
            "count" : 162,
            "type" : "VEC2"
        },
        {
            "bufferView" : 7,
            "componentType" : 5126,
            "count" : 2892,
            "max" : [
                -0.07016368210315704,
                0.07665908336639404,
                0.07357574254274368
            ],
            "min" : [
                -0.4248833954334259,
                -0.14051389694213867,
                -0.11159010231494904
            ],
            "type" : "VEC3"
        },
        {
            "bufferView" : 8,
            "componentType" : 5126,
            "count" : 2892,
            "type" : "VEC3"
        },
        {
            "bufferView" : 9,
            "componentType" : 5123,
            "count" : 4026,
            "type" : "SCALAR"
        }
    ],
    "bufferViews" : [
        {
            "buffer" : 0,
            "byteLength" : 1944,
            "byteOffset" : 0
        },
        {
            "buffer" : 0,
            "byteLength" : 1944,
            "byteOffset" : 1944
        },
        {
            "buffer" : 0,
            "byteLength" : 1296,
            "byteOffset" : 3888
        },
        {
            "buffer" : 0,
            "byteLength" : 432,
            "byteOffset" : 5184
        },
        {
            "buffer" : 0,
            "byteLength" : 1944,
            "byteOffset" : 5616
        },
        {
            "buffer" : 0,
            "byteLength" : 1944,
            "byteOffset" : 7560
        },
        {
            "buffer" : 0,
            "byteLength" : 1296,
            "byteOffset" : 9504
        },
        {
            "buffer" : 0,
            "byteLength" : 34704,
            "byteOffset" : 10800
        },
        {
            "buffer" : 0,
            "byteLength" : 34704,
            "byteOffset" : 45504
        },
        {
            "buffer" : 0,
            "byteLength" : 8052,
            "byteOffset" : 80208
        }
    ],
    "buffers" : [
        {
            "byteLength" : 88260,
            "uri" : "data:application/octet-stream;base64,"
        }
    ]
}
