{
    "asset" : {
        "generator" : "Khronos glTF Blender I/O v1.8.19",
        "version" : "2.0"
    },
    "scene" : 0,
    "scenes" : [
        {
            "name" : "Scene",
            "nodes" : [
                0,
                1,
                2,
                3,
                4,
                5,
                6
            ]
        }
    ],
    "nodes" : [
        {
            "mesh" : 0,
            "name" : "Sphere.002",
            "scale" : [
                0.4370255470275879,
                0.4370255470275879,
                0.4370255470275879
            ],
            "translation" : [
                -0.11405420303344727,
                0.09436635673046112,
                -0.011752627789974213
            ]
        },
        {
            "mesh" : 1,
            "name" : "Sphere.004",
            "rotation" : [
                -0.020270830020308495,
                -0.07460825890302658,
                0.9046872854232788,
                0.41900336742401123
            ],
            "scale" : [
                -0.2780058681964874,
                -0.2780058681964874,
                -0.2780058681964874
            ],
            "translation" : [
                0.21972930431365967,
                0.40322715044021606,
                0.05538627505302429
            ]
        },
        {
            "mesh" : 2,
            "name" : "Sphere.005",
            "rotation" : [
                0.510817289352417,
                -0.42361488938331604,
                0.7380998730659485,
                0.12175678461790085
            ],
            "scale" : [
                0.198504239320755,
                0.2048889696598053,
                0.20663341879844666
            ],
            "translation" : [
                0.2870556116104126,
                0.1176622062921524,
                -0.06583546102046967
            ]
        },
        {
            "mesh" : 3,
            "name" : "Sphere.006",
            "rotation" : [
                0.510817289352417,
                -0.42361488938331604,
                0.7380998730659485,
                0.12175678461790085
            ],
            "scale" : [
                0.19085964560508728,
                0.19085964560508728,
                0.19085964560508728
            ],
            "translation" : [
                0.40951406955718994,
                0.25435417890548706,
                0.038621872663497925
            ]
        },
        {
            "mesh" : 4,
            "name" : "Sphere.007",
            "rotation" : [
                0.510817289352417,
                -0.42361488938331604,
                0.7380998730659485,
                0.12175678461790085
            ],
            "scale" : [
                0.19085964560508728,
                0.19085964560508728,
                0.19085964560508728
            ],
            "translation" : [
                0.5500626564025879,
                0.18141376972198486,
                0.13587050139904022
            ]
        },
        {
            "mesh" : 5,
            "name" : "Sphere.010",
            "scale" : [
                0.08655725419521332,
                0.08655725419521332,
                0.08655725419521332
            ],
            "translation" : [
                0.6542332172393799,
                -0.4707271456718445,
                0.02712465077638626
            ]
        },
        {
            "mesh" : 6,
            "name" : "Sphere.011",
            "scale" : [
                0.1319945603609085,
                0.1319945603609085,
                0.1319945603609085
            ],
            "translation" : [
                0.3737446069717407,
                -0.35779112577438354,
                0.02712465077638626
            ]
        }
    ],
    "materials" : [
        {
            "name" : "mat21.001",
            "pbrMetallicRoughness" : {
                "baseColorFactor" : [
                    1,
                    0.5711245536804199,
                    0.3139888644218445,
                    1
                ],
                "metallicFactor" : 0
            }
        }
    ],
    "meshes" : [
        {
            "name" : "Sphere",
            "primitives" : [
                {
                    "attributes" : {
                        "POSITION" : 0,
                        "NORMAL" : 1,
                        "TEXCOORD_0" : 2
                    },
                    "indices" : 3,
                    "material" : 0
                }
            ]
        },
        {
            "name" : "Sphere.004",
            "primitives" : [
                {
                    "attributes" : {
                        "POSITION" : 4,
                        "NORMAL" : 5,
                        "TEXCOORD_0" : 6
                    },
                    "indices" : 3,
                    "material" : 0
                }
            ]
        },
        {
            "name" : "Sphere.005",
            "primitives" : [
                {
                    "attributes" : {
                        "POSITION" : 7,
                        "NORMAL" : 8,
                        "TEXCOORD_0" : 9
                    },
                    "indices" : 3,
                    "material" : 0
                }
            ]
        },
        {
            "name" : "Sphere.006",
            "primitives" : [
                {
                    "attributes" : {
                        "POSITION" : 10,
                        "NORMAL" : 11,
                        "TEXCOORD_0" : 12
                    },
                    "indices" : 3,
                    "material" : 0
                }
            ]
        },
        {
            "name" : "Sphere.007",
            "primitives" : [
                {
                    "attributes" : {
                        "POSITION" : 13,
                        "NORMAL" : 14,
                        "TEXCOORD_0" : 15
                    },
                    "indices" : 3,
                    "material" : 0
                }
            ]
        },
        {
            "name" : "Sphere.010",
            "primitives" : [
                {
                    "attributes" : {
                        "POSITION" : 16,
                        "NORMAL" : 17,
                        "TEXCOORD_0" : 18
                    },
                    "indices" : 19,
                    "material" : 0
                }
            ]
        },
        {
            "name" : "Sphere.011",
            "primitives" : [
                {
                    "attributes" : {
                        "POSITION" : 20,
                        "NORMAL" : 21,
                        "TEXCOORD_0" : 22
                    },
                    "indices" : 19,
                    "material" : 0
                }
            ]
        }
    ],
    "accessors" : [
        {
            "bufferView" : 0,
            "componentType" : 5126,
            "count" : 132,
            "max" : [
                0.8660255074501038,
                1,
                1.0000001192092896
            ],
            "min" : [
                -0.8660255670547485,
                -1,
                -1
            ],
            "type" : "VEC3"
        },
        {
            "bufferView" : 1,
            "componentType" : 5126,
            "count" : 132,
            "type" : "VEC3"
        },
        {
            "bufferView" : 2,
            "componentType" : 5126,
            "count" : 132,
            "type" : "VEC2"
        },
        {
            "bufferView" : 3,
            "componentType" : 5123,
            "count" : 180,
            "type" : "SCALAR"
        },
        {
            "bufferView" : 4,
            "componentType" : 5126,
            "count" : 132,
            "max" : [
                0.8660255074501038,
                1,
                1.0000001192092896
            ],
            "min" : [
                -0.8660255670547485,
                -1,
                -1
            ],
            "type" : "VEC3"
        },
        {
            "bufferView" : 5,
            "componentType" : 5126,
            "count" : 132,
            "type" : "VEC3"
        },
        {
            "bufferView" : 6,
            "componentType" : 5126,
            "count" : 132,
            "type" : "VEC2"
        },
        {
            "bufferView" : 7,
            "componentType" : 5126,
            "count" : 132,
            "max" : [
                0.8660255074501038,
                1,
                1.0000001192092896
            ],
            "min" : [
                -0.8660255670547485,
                -1,
                -1
            ],
            "type" : "VEC3"
        },
        {
            "bufferView" : 8,
            "componentType" : 5126,
            "count" : 132,
            "type" : "VEC3"
        },
        {
            "bufferView" : 9,
            "componentType" : 5126,
            "count" : 132,
            "type" : "VEC2"
        },
        {
            "bufferView" : 10,
            "componentType" : 5126,
            "count" : 132,
            "max" : [
                0.8660255074501038,
                1,
                1.0000001192092896
            ],
            "min" : [
                -0.8660255670547485,
                -1,
                -1
            ],
            "type" : "VEC3"
        },
        {
            "bufferView" : 11,
            "componentType" : 5126,
            "count" : 132,
            "type" : "VEC3"
        },
        {
            "bufferView" : 12,
            "componentType" : 5126,
            "count" : 132,
            "type" : "VEC2"
        },
        {
            "bufferView" : 13,
            "componentType" : 5126,
            "count" : 132,
            "max" : [
                0.8660255074501038,
                1,
                1.0000001192092896
            ],
            "min" : [
                -0.8660255670547485,
                -1,
                -1
            ],
            "type" : "VEC3"
        },
        {
            "bufferView" : 14,
            "componentType" : 5126,
            "count" : 132,
            "type" : "VEC3"
        },
        {
            "bufferView" : 15,
            "componentType" : 5126,
            "count" : 132,
            "type" : "VEC2"
        },
        {
            "bufferView" : 16,
            "componentType" : 5126,
            "count" : 162,
            "max" : [
                0.9366078972816467,
                1,
                0.8937008380889893
            ],
            "min" : [
                -0.9366077780723572,
                -1,
                -0.9510563015937805
            ],
            "type" : "VEC3"
        },
        {
            "bufferView" : 17,
            "componentType" : 5126,
            "count" : 162,
            "type" : "VEC3"
        },
        {
            "bufferView" : 18,
            "componentType" : 5126,
            "count" : 162,
            "type" : "VEC2"
        },
        {
            "bufferView" : 19,
            "componentType" : 5123,
            "count" : 216,
            "type" : "SCALAR"
        },
        {
            "bufferView" : 20,
            "componentType" : 5126,
            "count" : 162,
            "max" : [
                0.9366078972816467,
                1,
                0.8937008380889893
            ],
            "min" : [
                -0.9366077780723572,
                -1,
                -0.9510563015937805
            ],
            "type" : "VEC3"
        },
        {
            "bufferView" : 21,
            "componentType" : 5126,
            "count" : 162,
            "type" : "VEC3"
        },
        {
            "bufferView" : 22,
            "componentType" : 5126,
            "count" : 162,
            "type" : "VEC2"
        }
    ],
    "bufferViews" : [
        {
            "buffer" : 0,
            "byteLength" : 1584,
            "byteOffset" : 0
        },
        {
            "buffer" : 0,
            "byteLength" : 1584,
            "byteOffset" : 1584
        },
        {
            "buffer" : 0,
            "byteLength" : 1056,
            "byteOffset" : 3168
        },
        {
            "buffer" : 0,
            "byteLength" : 360,
            "byteOffset" : 4224
        },
        {
            "buffer" : 0,
            "byteLength" : 1584,
            "byteOffset" : 4584
        },
        {
            "buffer" : 0,
            "byteLength" : 1584,
            "byteOffset" : 6168
        },
        {
            "buffer" : 0,
            "byteLength" : 1056,
            "byteOffset" : 7752
        },
        {
            "buffer" : 0,
            "byteLength" : 1584,
            "byteOffset" : 8808
        },
        {
            "buffer" : 0,
            "byteLength" : 1584,
            "byteOffset" : 10392
        },
        {
            "buffer" : 0,
            "byteLength" : 1056,
            "byteOffset" : 11976
        },
        {
            "buffer" : 0,
            "byteLength" : 1584,
            "byteOffset" : 13032
        },
        {
            "buffer" : 0,
            "byteLength" : 1584,
            "byteOffset" : 14616
        },
        {
            "buffer" : 0,
            "byteLength" : 1056,
            "byteOffset" : 16200
        },
        {
            "buffer" : 0,
            "byteLength" : 1584,
            "byteOffset" : 17256
        },
        {
            "buffer" : 0,
            "byteLength" : 1584,
            "byteOffset" : 18840
        },
        {
            "buffer" : 0,
            "byteLength" : 1056,
            "byteOffset" : 20424
        },
        {
            "buffer" : 0,
            "byteLength" : 1944,
            "byteOffset" : 21480
        },
        {
            "buffer" : 0,
            "byteLength" : 1944,
            "byteOffset" : 23424
        },
        {
            "buffer" : 0,
            "byteLength" : 1296,
            "byteOffset" : 25368
        },
        {
            "buffer" : 0,
            "byteLength" : 432,
            "byteOffset" : 26664
        },
        {
            "buffer" : 0,
            "byteLength" : 1944,
            "byteOffset" : 27096
        },
        {
            "buffer" : 0,
            "byteLength" : 1944,
            "byteOffset" : 29040
        },
        {
            "buffer" : 0,
            "byteLength" : 1296,
            "byteOffset" : 30984
        }
    ],
    "buffers" : [
        {
            "byteLength" : 32280,
            "uri" : "data:application/octet-stream;base64,"
        }
    ]
}
