<?xml version="1.0" standalone="no"?>
<!DOCTYPE svg PUBLIC "-//W3C//DTD SVG 20010904//EN"
 "http://www.w3.org/TR/2001/REC-SVG-20010904/DTD/svg10.dtd">
<svg version="1.0" xmlns="http://www.w3.org/2000/svg"
 width="512.000000pt" height="512.000000pt" viewBox="0 0 512.000000 512.000000"
 preserveAspectRatio="xMidYMid meet">
<metadata>
Created by potrace 1.14, written by Peter Selinger 2001-2017
</metadata>
<g transform="translate(0.000000,512.000000) scale(0.100000,-0.100000)"
fill="#000000" stroke="none">
<path d="M2403 5099 c-217 -37 -401 -135 -547 -289 -114 -121 -140 -177 -102
-219 16 -17 16 -21 -2 -52 -10 -19 -26 -55 -36 -82 -10 -26 -21 -45 -26 -42
-14 8 -58 -13 -69 -33 -10 -18 -15 -40 -27 -111 -9 -53 -11 -189 -4 -238 6
-36 4 -48 -9 -59 -9 -7 -50 -40 -92 -73 -109 -86 -259 -242 -320 -331 l-31
-45 -156 0 c-131 -1 -171 -4 -242 -24 -324 -87 -587 -331 -689 -641 -39 -119
-51 -206 -46 -340 4 -132 19 -212 61 -323 28 -73 56 -101 97 -95 21 2 32 -8
71 -66 42 -62 46 -73 37 -98 -13 -38 -2 -64 46 -109 187 -176 448 -270 712
-256 l107 5 36 -51 c82 -117 255 -290 370 -370 l47 -32 -2 -105 c-1 -127 6
-191 32 -291 115 -433 513 -728 972 -722 410 6 777 282 908 681 38 117 57 295
42 389 -6 38 -6 38 79 104 129 102 278 255 349 360 l24 36 104 -5 c232 -10
470 66 648 209 102 82 128 113 127 149 0 17 -5 37 -11 43 -7 9 4 33 35 82 38
58 50 70 72 70 46 0 70 27 97 105 40 118 54 212 51 350 -6 256 -101 477 -285
661 -89 88 -172 147 -279 196 -102 47 -110 49 -162 62 -111 26 -153 30 -269
28 l-124 -2 -26 34 c-113 148 -242 279 -366 371 -33 25 -63 48 -66 53 -3 4 -3
28 1 54 7 47 5 189 -4 238 -31 172 -66 262 -156 400 -51 79 -170 204 -245 256
-217 154 -474 213 -732 168z m-745 -1336 c49 -132 185 -310 313 -409 334 -257
802 -266 1154 -23 142 98 289 281 347 431 13 32 26 58 29 58 17 0 179 -149
244 -224 33 -37 66 -74 73 -81 21 -23 14 -30 -55 -60 -249 -107 -448 -312
-540 -554 -45 -119 -63 -220 -63 -351 -2 -313 144 -600 403 -793 61 -46 215
-127 241 -127 20 0 29 -16 19 -34 -27 -49 -186 -211 -273 -280 -45 -36 -45
-36 -54 -13 -77 182 -143 283 -256 390 -194 186 -431 278 -695 272 -121 -4
-155 -9 -265 -42 -273 -81 -513 -298 -621 -561 l-32 -81 -28 20 c-70 50 -194
173 -268 266 l-41 51 58 23 c296 120 530 398 591 700 20 100 21 114 22 199 1
273 -93 502 -288 702 -87 90 -235 188 -330 219 -21 6 -41 14 -46 16 -16 9 130
175 234 266 73 63 92 77 99 77 4 0 17 -26 28 -57z"/>
</g>
</svg>
