<?xml version="1.0" standalone="no"?>
<!DOCTYPE svg PUBLIC "-//W3C//DTD SVG 20010904//EN"
 "http://www.w3.org/TR/2001/REC-SVG-20010904/DTD/svg10.dtd">
<svg version="1.0" xmlns="http://www.w3.org/2000/svg"
 width="484.000000pt" height="484.000000pt" viewBox="0 0 484.000000 484.000000"
 preserveAspectRatio="xMidYMid meet">
<metadata>
Created by potrace 1.14, written by Peter Selinger 2001-2017
</metadata>
<g transform="translate(0.000000,484.000000) scale(0.100000,-0.100000)"
fill="#000000" stroke="none">
<path d="M2361 4829 c-38 -15 -67 -56 -102 -143 -17 -45 -37 -94 -44 -111 -7
-16 -86 -214 -175 -440 -89 -225 -169 -425 -176 -442 -28 -62 -44 -116 -44
-144 l0 -28 65 29 c342 153 733 153 1061 -1 34 -16 66 -29 71 -29 24 0 -5 89
-134 415 -74 187 -141 354 -148 370 -7 17 -50 123 -95 237 -84 214 -103 249
-149 273 -36 18 -100 25 -130 14z"/>
<path d="M2367 3584 c-1 -1 -31 -5 -67 -8 -481 -49 -882 -398 -1005 -876 -41
-157 -40 -390 0 -553 51 -204 159 -392 310 -542 216 -215 493 -332 799 -339
306 -7 606 115 832 339 155 153 263 344 310 545 25 106 29 148 28 295 -1 155
-22 269 -76 404 -106 269 -321 500 -581 621 -72 34 -217 82 -281 94 -63 11
-261 26 -269 20z m250 -247 c325 -70 608 -331 698 -644 97 -340 11 -677 -237
-931 -105 -107 -271 -202 -424 -243 -116 -31 -301 -35 -418 -9 -238 53 -420
167 -564 356 -71 93 -149 268 -167 375 -4 24 -9 53 -12 64 -9 45 -1 233 13
304 78 377 378 668 759 736 89 16 259 12 352 -8z"/>
<path d="M1978 2777 c-128 -66 -92 -255 51 -274 94 -13 173 64 165 159 -4 43
-40 100 -75 119 -38 20 -96 18 -141 -4z"/>
<path d="M2690 2759 c-57 -20 -111 -58 -142 -100 -72 -96 -5 -185 82 -108 19
17 48 38 64 46 29 15 130 21 171 10 11 -3 23 -6 26 -6 4 -1 29 -19 57 -41 52
-42 77 -48 105 -27 22 16 24 53 4 97 -51 114 -230 178 -367 129z"/>
<path d="M1884 2181 c-39 -24 -58 -69 -49 -117 5 -27 23 -53 64 -95 59 -58
188 -149 213 -149 8 0 18 -4 24 -9 11 -11 96 -38 149 -48 22 -5 92 -7 155 -7
137 2 240 30 352 97 81 49 182 137 203 178 45 85 -31 187 -122 164 -13 -3 -56
-35 -96 -72 -156 -143 -355 -184 -541 -111 -74 29 -113 55 -182 120 -72 68
-118 82 -170 49z"/>
<path d="M3526 3011 c-3 -4 11 -40 29 -81 38 -84 81 -227 91 -298 3 -26 9 -65
13 -87 4 -22 6 -80 5 -130 -3 -210 -31 -325 -141 -582 -14 -33 87 1 567 193
676 269 681 271 708 305 35 43 39 89 12 144 -28 57 -22 54 -390 199 -162 64
-304 121 -315 126 -49 23 -531 211 -552 214 -12 3 -25 1 -27 -3z"/>
<path d="M1000 2895 c-146 -58 -274 -110 -285 -115 -11 -5 -156 -64 -323 -130
-167 -66 -313 -127 -325 -135 -12 -8 -30 -30 -41 -49 -16 -29 -16 -39 -6 -71
15 -44 44 -76 90 -97 47 -22 667 -268 675 -268 3 0 24 -9 48 -20 51 -23 330
-134 406 -161 29 -10 57 -17 61 -14 5 3 -4 31 -19 63 -71 146 -112 332 -113
510 0 64 3 137 6 162 4 25 9 59 12 75 10 63 57 213 89 283 33 70 33 72 12 72
-12 0 -141 -48 -287 -105z"/>
<path d="M1820 1295 c0 -19 176 -480 245 -640 7 -16 61 -151 120 -300 59 -148
116 -281 128 -294 26 -27 57 -41 112 -47 45 -5 93 18 119 58 21 32 474 1171
481 1207 3 16 1 32 -4 35 -5 3 -35 -7 -67 -23 -70 -35 -184 -74 -286 -98 -79
-18 -322 -24 -431 -11 -107 14 -270 64 -369 114 l-48 24 0 -25z"/>
</g>
</svg>
